<?xml version="1.0" encoding="utf-8" ?><svg xmlns="http://www.w3.org/2000/svg" xmlns:xlink="http://www.w3.org/1999/xlink" width="1024" height="1024" viewBox="0 0 1024 1024" xmlns:c2pa="http://c2pa.org/manifest"><metadata><c2pa:manifest>AAAgRWp1bWIAAAAeanVtZGMycGEAEQAQgAAAqgA4m3EDYzJwYQAAAAxBanVtYgAAAEdqdW1kYzJtYQARABCAAACqADibcQN1cm46YzJwYTplMzY2NmZhOC03OWEyLTQ0NTItOTRmNS1mMTkyYmUzY2Q0YTAAAAAB4mp1bWIAAAApanVtZGMyYXMAEQAQgAAAqgA4m3EDYzJwYS5hc3NlcnRpb25zAAAAAO1qdW1iAAAAQWp1bWRjYm9yABEAEIAAAKoAOJtxE2MycGEuYWN0aW9ucy52MgAAAAAYYzJzaDtavsjI0N28x46yjplNh2QAAACkY2JvcqFnYWN0aW9uc4GjZmFjdGlvbmxjMnBhLmNyZWF0ZWRxZGlnaXRhbFNvdXJjZVR5cGV4Rmh0dHA6Ly9jdi5pcHRjLm9yZy9uZXdzY29kZXMvZGlnaXRhbHNvdXJjZXR5cGUvdHJhaW5lZEFsZ29yaXRobWljTWVkaWFrZGVzY3JpcHRpb252Q3JlYXRlZCBieSBSZWNyYWZ0IEFJLgAAAMRqdW1iAAAAQGp1bWRjYm9yABEAEIAAAKoAOJtxE2MycGEuaGFzaC5kYXRhAAAAABhjMnNokc/bE+Fc7pHuKgXHwJKLogAAAHxjYm9ypWpleGNsdXNpb25zgaJlc3RhcnQY22ZsZW5ndGgZEIxkbmFtZW5qdW1iZiBtYW5pZmVzdGNhbGdmc2hhMjU2ZGhhc2hYIHrN/WL+xjoU8FRiew1CegIJgP/Af0NVjusenWyHQavQY3BhZEkAAAAAAAAAAAAAAAI0anVtYgAAACdqdW1kYzJjbAARABCAAACqADibcQNjMnBhLmNsYWltLnYyAAAAAgVjYm9ypmppbnN0YW5jZUlEeCx4bXA6aWlkOmQxMWQ0MTkyLWNlYmMtNDQ2ZS05OWM0LTlmNTZkNWY4NmU4MnRjbGFpbV9nZW5lcmF0b3JfaW5mb6NkbmFtZWpyZWNyYWZ0LmFpZ3ZlcnNpb254KDgxY2U4MmUyYzVjM2NiZmJlOGM2ZmJlMTc5ZDVmOGQ5MWM0MDljZTF3b3JnLmNvbnRlbnRhdXRoLmMycGFfcnNmMC45MC43aXNpZ25hdHVyZXhNc2VsZiNqdW1iZj0vYzJwYS91cm46YzJwYTplMzY2NmZhOC03OWEyLTQ0NTItOTRmNS1mMTkyYmUzY2Q0YTAvYzJwYS5zaWduYXR1cmVyY3JlYXRlZF9hc3NlcnRpb25zgqJjdXJseCpzZWxmI2p1bWJmPWMycGEuYXNzZXJ0aW9ucy9jMnBhLmFjdGlvbnMudjJkaGFzaFggT4JyYLMK9nKP90+/Tj/6RP9J2pUS6zj015yy2AFgHvuiY3VybHgpc2VsZiNqdW1iZj1jMnBhLmFzc2VydGlvbnMvYzJwYS5oYXNoLmRhdGFkaGFzaFggsWywdhyOqWrRkGNaS3J7CnULcy4cgdoFUK6QWWVjzcJoZGM6dGl0bGV4GlJlY3JhZnQgQUkgR2VuZXJhdGVkIEltYWdlY2FsZ2ZzaGEyNTYAAAfcanVtYgAAAChqdW1kYzJjcwARABCAAACqADibcQNjMnBhLnNpZ25hdHVyZQAAAAesY2JvctKEWQOwogEmGCGCWQHnMIIB4zCCAYmgAwIBAgIJALfeWmNDUW56MAoGCCqGSM49BAMCMEAxHzAdBgNVBAMMFlJlY3JhZnQgU3RhZ2luZyBEZXYgQ0ExEDAOBgNVBAoMB1JlY3JhZnQxCzAJBgNVBAYTAlVTMB4XDTI2MDYxMjE5NDM1MFoXDTI3MDYxMjE5NDM1MFowNzELMAkGA1UEBhMCVVMxEzARBgNVBAoTClJlY3JhZnQgQUkxEzARBgNVBAMTCnJlY3JhZnQuYWkwWTATBgcqhkjOPQIBBggqhkjOPQMBBwNCAARKaTVbACsg/DeG3LeOxYdID/VA6EFG73E6Oknb+KIiCFJygRUz4ueN2z/t2qYb6CIUvS8RvgOiiClfoqsYtw81o3UwczAMBgNVHRMBAf8EAjAAMA4GA1UdDwEB/wQEAwIGwDATBgNVHSUEDDAKBggrBgEFBQcDBDAdBgNVHQ4EFgQULzHpBen96SL1y4IPHa8MkMshXf0wHwYDVR0jBBgwFoAUAgsqOBrKqpdK//m/kxZo7ZR4ebcwCgYIKoZIzj0EAwIDSAAwRQIgU8hKW0aXvvk8SQgVFNkax69Ym9ae8GsT2RZTQw+B51ACIQC0D4BkEoRD4N0r2ZRkNy0HZaW3WICy/QZGN95ilF4yzFkBvTCCAbkwggFfoAMCAQICCQCc+Wg7T6ATbzAKBggqhkjOPQQDAjBAMR8wHQYDVQQDDBZSZWNyYWZ0IFN0YWdpbmcgRGV2IENBMRAwDgYDVQQKDAdSZWNyYWZ0MQswCQYDVQQGEwJVUzAeFw0yNjA2MTIxOTQwMTZaFw0yODA2MTExOTQwMTZaMEAxHzAdBgNVBAMMFlJlY3JhZnQgU3RhZ2luZyBEZXYgQ0ExEDAOBgNVBAoMB1JlY3JhZnQxCzAJBgNVBAYTAlVTMFkwEwYHKoZIzj0CAQYIKoZIzj0DAQcDQgAEQ9IQBlcVbKaKPYrQSfOhL/00s7xUDC7RinIuLO/I1k99y9yh6oWF9kPxaP+tx1v1PeOL3yrVquJ730H0ZGiDyqNCMEAwDwYDVR0TAQH/BAUwAwEB/zAOBgNVHQ8BAf8EBAMCAYYwHQYDVR0OBBYEFAILKjgayqqXSv/5v5MWaO2UeHm3MAoGCCqGSM49BAMCA0gAMEUCIFQwNImLlYDeQhjgF+ZiqTbgcuzSqmOJw3Q2lQ/hu83FAiEA9O8cLm/xfoVLqB4jtdbuHzi3WL+p2RN+DRGkwpYswVuhY3BhZFkDpAAAAAAAAAAAAAAAAAAAAAAAAAAAAAAAAAAAAAAAAAAAAAAAAAAAAAAAAAAAAAAAAAAAAAAAAAAAAAAAAAAAAAAAAAAAAAAAAAAAAAAAAAAAAAAAAAAAAAAAAAAAAAAAAAAAAAAAAAAAAAAAAAAAAAAAAAAAAAAAAAAAAAAAAAAAAAAAAAAAAAAAAAAAAAAAAAAAAAAAAAAAAAAAAAAAAAAAAAAAAAAAAAAAAAAAAAAAAAAAAAAAAAAAAAAAAAAAAAAAAAAAAAAAAAAAAAAAAAAAAAAAAAAAAAAAAAAAAAAAAAAAAAAAAAAAAAAAAAAAAAAAAAAAAAAAAAAAAAAAAAAAAAAAAAAAAAAAAAAAAAAAAAAAAAAAAAAAAAAAAAAAAAAAAAAAAAAAAAAAAAAAAAAAAAAAAAAAAAAAAAAAAAAAAAAAAAAAAAAAAAAAAAAAAAAAAAAAAAAAAAAAAAAAAAAAAAAAAAAAAAAAAAAAAAAAAAAAAAAAAAAAAAAAAAAAAAAAAAAAAAAAAAAAAAAAAAAAAAAAAAAAAAAAAAAAAAAAAAAAAAAAAAAAAAAAAAAAAAAAAAAAAAAAAAAAAAAAAAAAAAAAAAAAAAAAAAAAAAAAAAAAAAAAAAAAAAAAAAAAAAAAAAAAAAAAAAAAAAAAAAAAAAAAAAAAAAAAAAAAAAAAAAAAAAAAAAAAAAAAAAAAAAAAAAAAAAAAAAAAAAAAAAAAAAAAAAAAAAAAAAAAAAAAAAAAAAAAAAAAAAAAAAAAAAAAAAAAAAAAAAAAAAAAAAAAAAAAAAAAAAAAAAAAAAAAAAAAAAAAAAAAAAAAAAAAAAAAAAAAAAAAAAAAAAAAAAAAAAAAAAAAAAAAAAAAAAAAAAAAAAAAAAAAAAAAAAAAAAAAAAAAAAAAAAAAAAAAAAAAAAAAAAAAAAAAAAAAAAAAAAAAAAAAAAAAAAAAAAAAAAAAAAAAAAAAAAAAAAAAAAAAAAAAAAAAAAAAAAAAAAAAAAAAAAAAAAAAAAAAAAAAAAAAAAAAAAAAAAAAAAAAAAAAAAAAAAAAAAAAAAAAAAAAAAAAAAAAAAAAAAAAAAAAAAAAAAAAAAAAAAAAAAAAAAAAAAAAAAAAAAAAAAAAAAAAAAAAAAAAAAAAAAAAAAAAAAAAAAAAAAAAAAAAAAAAAAAAAAAAAAAAAAAAAAAAAAAAAAAAAAAAAAAAAAAAAAAAAAAAAAAAAAAAAAAAAAAAAAAAAAAA9lhAnv6RuakYA1HJBFQouaJHF7Z+13jUEj+z3ctFFtuuh6N8YLJ3I3mddp8qXwOm8t43A7cikR4gK+GTNMkVbKLSGAAAE95qdW1iAAAAR2p1bWRjMm1hABEAEIAAAKoAOJtxA3VybjpjMnBhOjY0NDFmN2I5LWFiMjgtNDU5MS1iY2Y0LWI5NmViNmIxMzRhNQAAAAkdanVtYgAAAClqdW1kYzJhcwARABCAAACqADibcQNjMnBhLmFzc2VydGlvbnMAAAAGOmp1bWIAAABEanVtZGNib3IAEQAQgAAAqgA4m3ETYzJwYS5pbmdyZWRpZW50LnYzAAAAABhjMnNoWEMWZyyOvNG/ixdASWrbHwAABe5jYm9yp2xyZWxhdGlvbnNoaXBocGFyZW50T2ZoZGM6dGl0bGVmc291cmNlaWRjOmZvcm1hdG1pbWFnZS9zdmcreG1scXZhbGlkYXRpb25SZXN1bHRzoW5hY3RpdmVNYW5pZmVzdKNnc3VjY2Vzc4WjZGNvZGV4HWNsYWltU2lnbmF0dXJlLmluc2lkZVZhbGlkaXR5Y3VybHhNc2VsZiNqdW1iZj0vYzJwYS91cm46YzJwYTplMzY2NmZhOC03OWEyLTQ0NTItOTRmNS1mMTkyYmUzY2Q0YTAvYzJwYS5zaWduYXR1cmVrZXhwbGFuYXRpb251Y2xhaW0gc2lnbmF0dXJlIHZhbGlko2Rjb2RleBhjbGFpbVNpZ25hdHVyZS52YWxpZGF0ZWRjdXJseE1zZWxmI2p1bWJmPS9jMnBhL3VybjpjMnBhOmUzNjY2ZmE4LTc5YTItNDQ1Mi05NGY1LWYxOTJiZTNjZDRhMC9jMnBhLnNpZ25hdHVyZWtleHBsYW5hdGlvbnVjbGFpbSBzaWduYXR1cmUgdmFsaWSjZGNvZGV4GWFzc2VydGlvbi5oYXNoZWRVUkkubWF0Y2hjdXJseF5zZWxmI2p1bWJmPS9jMnBhL3VybjpjMnBhOmUzNjY2ZmE4LTc5YTItNDQ1Mi05NGY1LWYxOTJiZTNjZDRhMC9jMnBhLmFzc2VydGlvbnMvYzJwYS5hY3Rpb25zLnYya2V4cGxhbmF0aW9ueD5oYXNoZWQgdXJpIG1hdGNoZWQ6IHNlbGYjanVtYmY9YzJwYS5hc3NlcnRpb25zL2MycGEuYWN0aW9ucy52MqNkY29kZXgZYXNzZXJ0aW9uLmhhc2hlZFVSSS5tYXRjaGN1cmx4XXNlbGYjanVtYmY9L2MycGEvdXJuOmMycGE6ZTM2NjZmYTgtNzlhMi00NDUyLTk0ZjUtZjE5MmJlM2NkNGEwL2MycGEuYXNzZXJ0aW9ucy9jMnBhLmhhc2guZGF0YWtleHBsYW5hdGlvbng9aGFzaGVkIHVyaSBtYXRjaGVkOiBzZWxmI2p1bWJmPWMycGEuYXNzZXJ0aW9ucy9jMnBhLmhhc2guZGF0YaNkY29kZXgYYXNzZXJ0aW9uLmRhdGFIYXNoLm1hdGNoY3VybHhdc2VsZiNqdW1iZj0vYzJwYS91cm46YzJwYTplMzY2NmZhOC03OWEyLTQ0NTItOTRmNS1mMTkyYmUzY2Q0YTAvYzJwYS5hc3NlcnRpb25zL2MycGEuaGFzaC5kYXRha2V4cGxhbmF0aW9ub2RhdGEgaGFzaCB2YWxpZG1pbmZvcm1hdGlvbmFsgGdmYWlsdXJlgaNkY29kZXgbc2lnbmluZ0NyZWRlbnRpYWwudW50cnVzdGVkY3VybHhNc2VsZiNqdW1iZj0vYzJwYS91cm46YzJwYTplMzY2NmZhOC03OWEyLTQ0NTItOTRmNS1mMTkyYmUzY2Q0YTAvYzJwYS5zaWduYXR1cmVrZXhwbGFuYXRpb254HXNpZ25pbmcgY2VydGlmaWNhdGUgdW50cnVzdGVkamluc3RhbmNlSUR4LHhtcDppaWQ6NjdjMGFhMzUtMmMyNy00YzllLTlhYTQtOGFjNDZmMzRiZjgybmFjdGl2ZU1hbmlmZXN0o2N1cmx4PnNlbGYjanVtYmY9L2MycGEvdXJuOmMycGE6ZTM2NjZmYTgtNzlhMi00NDUyLTk0ZjUtZjE5MmJlM2NkNGEwY2FsZ2ZzaGEyNTZkaGFzaFgg+D38dx3KJDkWnL/lPmcYP72f3UGaqK6vh+Y3iF8nJeBuY2xhaW1TaWduYXR1cmWjY3VybHhNc2VsZiNqdW1iZj0vYzJwYS91cm46YzJwYTplMzY2NmZhOC03OWEyLTQ0NTItOTRmNS1mMTkyYmUzY2Q0YTAvYzJwYS5zaWduYXR1cmVjYWxnZnNoYTI1NmRoYXNoWCD03MJU1CiP1YiKC4VTzuaugwjZHU++iPxyfGFzVlInNQAAAe5qdW1iAAAAQWp1bWRjYm9yABEAEIAAAKoAOJtxE2MycGEuYWN0aW9ucy52MgAAAAAYYzJzaHr9DbzsJKQAH05jRuZmUlsAAAGlY2JvcqFnYWN0aW9uc4KiZmFjdGlvbmtjMnBhLm9wZW5lZGpwYXJhbWV0ZXJzoWtpbmdyZWRpZW50c4GiY3VybHgtc2VsZiNqdW1iZj1jMnBhLmFzc2VydGlvbnMvYzJwYS5pbmdyZWRpZW50LnYzZGhhc2hYIIufCt+OEckad1vVNDwnir7YLX+6sCBEVoPJ0D0IKjx9pGZhY3Rpb25sYzJwYS5jcmVhdGVkanBhcmFtZXRlcnOha2luZ3JlZGllbnRzgaJjdXJseC1zZWxmI2p1bWJmPWMycGEuYXNzZXJ0aW9ucy9jMnBhLmluZ3JlZGllbnQudjNkaGFzaFggi58K344RyRp3W9U0PCeKvtgtf7qwIERWg8nQPQgqPH1xZGlnaXRhbFNvdXJjZVR5cGV4QWh0dHA6Ly9jdi5pcHRjLm9yZy9uZXdzY29kZXMvZGlnaXRhbHNvdXJjZXR5cGUvY29tcG9zaXRlU3ludGhldGlja2Rlc2NyaXB0aW9ueB9Db21wb3NlZCBpbiB0aGUgUmVjcmFmdCBlZGl0b3IuAAAAxGp1bWIAAABAanVtZGNib3IAEQAQgAAAqgA4m3ETYzJwYS5oYXNoLmRhdGEAAAAAGGMyc2hERUjAo09zjifs0dXHD83oAAAAfGNib3KlamV4Y2x1c2lvbnOBomVzdGFydBjsZmxlbmd0aBkrCGRuYW1lbmp1bWJmIG1hbmlmZXN0Y2FsZ2ZzaGEyNTZkaGFzaFggbfdukkce5xzXXn3m4YTaNmOFzYEWyn1BfTjdUcbui7djcGFkSQAAAAAAAAAAAAAAApZqdW1iAAAAJ2p1bWRjMmNsABEAEIAAAKoAOJtxA2MycGEuY2xhaW0udjIAAAACZ2Nib3Knamluc3RhbmNlSUR4LHhtcDppaWQ6N2U1ZWNjZjUtNTBhMC00ZWI3LWFkMmEtN2I1NTRmNjczZDgxdGNsYWltX2dlbmVyYXRvcl9pbmZvo2RuYW1lanJlY3JhZnQuYWlndmVyc2lvbngoODFjZTgyZTJjNWMzY2JmYmU4YzZmYmUxNzlkNWY4ZDkxYzQwOWNlMXdvcmcuY29udGVudGF1dGguYzJwYV9yc2YwLjkwLjdpc2lnbmF0dXJleE1zZWxmI2p1bWJmPS9jMnBhL3VybjpjMnBhOjY0NDFmN2I5LWFiMjgtNDU5MS1iY2Y0LWI5NmViNmIxMzRhNS9jMnBhLnNpZ25hdHVyZXJjcmVhdGVkX2Fzc2VydGlvbnOComN1cmx4KnNlbGYjanVtYmY9YzJwYS5hc3NlcnRpb25zL2MycGEuYWN0aW9ucy52MmRoYXNoWCCHiB50PR7v3m/KWckEupycrbIhLbmdyxqDb8KHg/jIqKJjdXJseClzZWxmI2p1bWJmPWMycGEuYXNzZXJ0aW9ucy9jMnBhLmhhc2guZGF0YWRoYXNoWCCW+BiElwODXTQVTRZ7VuMp0ZOB8ZC3fDhJj/XYxNTVkXNnYXRoZXJlZF9hc3NlcnRpb25zgaJjdXJseC1zZWxmI2p1bWJmPWMycGEuYXNzZXJ0aW9ucy9jMnBhLmluZ3JlZGllbnQudjNkaGFzaFggi58K344RyRp3W9U0PCeKvtgtf7qwIERWg8nQPQgqPH1oZGM6dGl0bGVtUmVjcmFmdCBJbWFnZWNhbGdmc2hhMjU2AAAH3Gp1bWIAAAAoanVtZGMyY3MAEQAQgAAAqgA4m3EDYzJwYS5zaWduYXR1cmUAAAAHrGNib3LShFkDsKIBJhghglkB5zCCAeMwggGJoAMCAQICCQC33lpjQ1FuejAKBggqhkjOPQQDAjBAMR8wHQYDVQQDDBZSZWNyYWZ0IFN0YWdpbmcgRGV2IENBMRAwDgYDVQQKDAdSZWNyYWZ0MQswCQYDVQQGEwJVUzAeFw0yNjA2MTIxOTQzNTBaFw0yNzA2MTIxOTQzNTBaMDcxCzAJBgNVBAYTAlVTMRMwEQYDVQQKEwpSZWNyYWZ0IEFJMRMwEQYDVQQDEwpyZWNyYWZ0LmFpMFkwEwYHKoZIzj0CAQYIKoZIzj0DAQcDQgAESmk1WwArIPw3hty3jsWHSA/1QOhBRu9xOjpJ2/iiIghScoEVM+Lnjds/7dqmG+giFL0vEb4DoogpX6KrGLcPNaN1MHMwDAYDVR0TAQH/BAIwADAOBgNVHQ8BAf8EBAMCBsAwEwYDVR0lBAwwCgYIKwYBBQUHAwQwHQYDVR0OBBYEFC8x6QXp/eki9cuCDx2vDJDLIV39MB8GA1UdIwQYMBaAFAILKjgayqqXSv/5v5MWaO2UeHm3MAoGCCqGSM49BAMCA0gAMEUCIFPISltGl775PEkIFRTZGsevWJvWnvBrE9kWU0MPgedQAiEAtA+AZBKEQ+DdK9mUZDctB2Wlt1iAsv0GRjfeYpReMsxZAb0wggG5MIIBX6ADAgECAgkAnPloO0+gE28wCgYIKoZIzj0EAwIwQDEfMB0GA1UEAwwWUmVjcmFmdCBTdGFnaW5nIERldiBDQTEQMA4GA1UECgwHUmVjcmFmdDELMAkGA1UEBhMCVVMwHhcNMjYwNjEyMTk0MDE2WhcNMjgwNjExMTk0MDE2WjBAMR8wHQYDVQQDDBZSZWNyYWZ0IFN0YWdpbmcgRGV2IENBMRAwDgYDVQQKDAdSZWNyYWZ0MQswCQYDVQQGEwJVUzBZMBMGByqGSM49AgEGCCqGSM49AwEHA0IABEPSEAZXFWymij2K0EnzoS/9NLO8VAwu0YpyLizvyNZPfcvcoeqFhfZD8Wj/rcdb9T3ji98q1arie99B9GRog8qjQjBAMA8GA1UdEwEB/wQFMAMBAf8wDgYDVR0PAQH/BAQDAgGGMB0GA1UdDgQWBBQCCyo4Gsqql0r/+b+TFmjtlHh5tzAKBggqhkjOPQQDAgNIADBFAiBUMDSJi5WA3kIY4BfmYqk24HLs0qpjicN0NpUP4bvNxQIhAPTvHC5v8X6FS6geI7XW7h84t1i/qdkTfg0RpMKWLMFboWNwYWRZA6QAAAAAAAAAAAAAAAAAAAAAAAAAAAAAAAAAAAAAAAAAAAAAAAAAAAAAAAAAAAAAAAAAAAAAAAAAAAAAAAAAAAAAAAAAAAAAAAAAAAAAAAAAAAAAAAAAAAAAAAAAAAAAAAAAAAAAAAAAAAAAAAAAAAAAAAAAAAAAAAAAAAAAAAAAAAAAAAAAAAAAAAAAAAAAAAAAAAAAAAAAAAAAAAAAAAAAAAAAAAAAAAAAAAAAAAAAAAAAAAAAAAAAAAAAAAAAAAAAAAAAAAAAAAAAAAAAAAAAAAAAAAAAAAAAAAAAAAAAAAAAAAAAAAAAAAAAAAAAAAAAAAAAAAAAAAAAAAAAAAAAAAAAAAAAAAAAAAAAAAAAAAAAAAAAAAAAAAAAAAAAAAAAAAAAAAAAAAAAAAAAAAAAAAAAAAAAAAAAAAAAAAAAAAAAAAAAAAAAAAAAAAAAAAAAAAAAAAAAAAAAAAAAAAAAAAAAAAAAAAAAAAAAAAAAAAAAAAAAAAAAAAAAAAAAAAAAAAAAAAAAAAAAAAAAAAAAAAAAAAAAAAAAAAAAAAAAAAAAAAAAAAAAAAAAAAAAAAAAAAAAAAAAAAAAAAAAAAAAAAAAAAAAAAAAAAAAAAAAAAAAAAAAAAAAAAAAAAAAAAAAAAAAAAAAAAAAAAAAAAAAAAAAAAAAAAAAAAAAAAAAAAAAAAAAAAAAAAAAAAAAAAAAAAAAAAAAAAAAAAAAAAAAAAAAAAAAAAAAAAAAAAAAAAAAAAAAAAAAAAAAAAAAAAAAAAAAAAAAAAAAAAAAAAAAAAAAAAAAAAAAAAAAAAAAAAAAAAAAAAAAAAAAAAAAAAAAAAAAAAAAAAAAAAAAAAAAAAAAAAAAAAAAAAAAAAAAAAAAAAAAAAAAAAAAAAAAAAAAAAAAAAAAAAAAAAAAAAAAAAAAAAAAAAAAAAAAAAAAAAAAAAAAAAAAAAAAAAAAAAAAAAAAAAAAAAAAAAAAAAAAAAAAAAAAAAAAAAAAAAAAAAAAAAAAAAAAAAAAAAAAAAAAAAAAAAAAAAAAAAAAAAAAAAAAAAAAAAAAAAAAAAAAAAAAAAAAAAAAAAAAAAAAAAAAAAAAAAAAAAAAAAAAAAAAAAAAAAAAAAAAAAAAAAAAAAAAAAAAAAAAAAAAAAAAAAAAAAAAAAAAAAAAAAAAAAAAAAAAAAAAAAAAAAAAAAAAAAAAAAAAAAAAAAAAAAAAAAAAAAAAAAAAAAAAAAAAAAAAAAAAAPZYQKqdchZfJsVMTttxw4TwyzQJVHhigq2Otua1Y4OgBBg1Uf2008OhDykbp2Aq/RKGq7QXmDZGlnJAlOT5CTuTP/I=</c2pa:manifest></metadata><path fill="#080B0E" d="M0 0L1024 0L1024 289.805L1024 353.975L1024 413.959L1024 479.489L1024 495.428L1024 509.045L1024 519.441L1024 536.248L1024 606.756L1024 614.964L1024 732.97L1024 735.79L1024 1024L0 1024L0 734.765L0 732.011L0 604.673L0 597.83L0 535.033L0 531.598L0 479.234L0 414.288L0 413.78L0 353.854L0 290.213L0 0Z"/><path fill="#080B0E" d="M915.227 677.548C916.776 675.869 930.304 646.745 931.33 643.333L929.611 642.598C931.335 638.514 933.887 634.694 935.832 630.099C943.228 612.62 947.127 593.389 953.369 575.778L954.331 575.543C956.541 581.822 935.263 633.98 936.173 636.745C937.36 636.902 937.91 636.983 939.063 637.283C938.5 641.005 934.664 640.738 932.584 645.444C927.702 656.491 922.164 667.486 917.296 678.52C938.264 689.891 961.146 701.107 982.517 711.975C1000.58 679.525 1012.2 641.719 1024 606.756L1024 614.964L1024 732.97L1024 735.79L1024 1024L0 1024L0 734.765C13.0616 727.704 27.2055 720.808 40.493 713.997C41.3326 714.265 41.1169 714.063 42.3452 713.553C43.2342 712.607 104.56 681.324 109.117 680.109L110.15 679.35C112.724 677.492 129.78 669.407 133.721 667.565C147.035 661.343 162.458 652.144 175.48 646.542C195.231 688.048 229.894 731.015 265.005 760.397C261.904 763.738 247.543 777.331 247.396 779.977C250.599 778.568 262.912 764.93 266.257 761.472C273.213 767.63 284.491 777.792 292.806 781.474C286.857 775.497 274.337 766.612 267.115 760.156C282.606 744.253 299.737 726.405 314.566 709.897C326.517 719.692 346.623 734.319 360.254 741.94L337.415 741.986C337.242 754.454 337.144 766.922 337.123 779.39L374.944 779.393C374.952 770.12 374.736 759.797 375.067 750.608C377.206 751.061 385.502 754.857 388.003 755.96C393.311 758.281 398.673 760.476 404.085 762.542C407.093 763.725 411.053 764.857 413.922 766.071C412.899 768.093 409.292 777.787 410.026 779.708C412.755 778.191 418.918 756.513 420.425 752.077L437.637 702.372C462.995 710.532 485.206 714.591 511.76 714.569C511.899 729.248 511.957 743.927 511.936 758.606C511.951 764.118 511.677 774.381 512.217 779.591L512.841 779.99L513.738 779.657C515.222 777.073 514.497 762.238 514.496 758.032L514.495 714.794C540.437 714.947 563.512 710.078 587.961 702.153C592.875 719.521 600.36 736.806 605.814 754.094C607.952 760.872 612.434 777.089 616.587 782.309C616.037 777.196 613.563 770.84 611.827 765.851C646.272 752.419 683.657 734.474 711.153 709.208C715.151 714.379 724.24 723.71 729.082 728.961C738.536 739.214 748.376 750.427 758.074 760.349C754.903 762.825 734.802 778.257 733.329 780.166C737.566 780.344 754.919 765.138 758.971 761.46C761.787 764.48 774.726 778.983 777.088 779.727L777.565 779.363C776.716 777.491 762.616 763.16 760.131 760.585C790.892 737.05 821.375 696.427 840.604 662.986C843.635 657.716 846.124 651.837 849.445 646.734L849.744 646.283C865.158 655.173 882.096 662.904 897.801 671.417C903.102 674.29 909.284 676.902 914.37 679.942C914.402 678.279 914.201 679.075 915.227 677.548Z"/><path fill="#080B0E" d="M984.81 713.193C991.201 697.737 999.163 683.447 1005.45 666.973C1011.94 649.983 1017.45 631.471 1024 614.964L1024 732.97C1011.7 727.051 996.724 719.706 984.81 713.193Z"/><path fill="#104036" d="M915.227 677.548C916.776 675.869 930.304 646.745 931.33 643.333L929.611 642.598C931.335 638.514 933.887 634.694 935.832 630.099C943.228 612.62 947.127 593.389 953.369 575.778L954.331 575.543C956.541 581.822 935.263 633.98 936.173 636.745C937.36 636.902 937.91 636.983 939.063 637.283C938.5 641.005 934.664 640.738 932.584 645.444C927.702 656.491 922.164 667.486 917.296 678.52C938.264 689.891 961.146 701.107 982.517 711.975C1000.58 679.525 1012.2 641.719 1024 606.756L1024 614.964C1017.45 631.471 1011.94 649.983 1005.45 666.973C999.163 683.447 991.201 697.737 984.81 713.193C996.724 719.706 1011.7 727.051 1024 732.97L1024 735.79C1017.84 732.433 1010.55 729.22 1004.17 725.804C998.392 722.715 989.395 717.792 983.55 715.497C978.587 726.386 951.013 775.748 942.346 782.175C944.947 775.278 951.437 767.79 954.985 761.412C962.627 747.678 975.255 728.596 981.193 714.382C972.775 709.576 963.405 705.002 954.721 700.512C941.954 693.857 929.152 687.27 916.314 680.753C902.756 708.98 880.573 741.277 860.869 765.472C856.291 771.093 850.596 778.175 845.134 782.74C849.149 775.071 860.873 763.33 866.633 755.592C883.303 733.202 902.49 705.384 914.37 679.942C914.402 678.279 914.201 679.075 915.227 677.548Z"/><path fill="#0A3830" d="M109.117 680.109L110.15 679.35C124.184 704.047 132.134 719.926 149.536 743.929C154.71 751.093 160.108 758.092 165.723 764.915C169.068 768.949 177.14 778.006 179.393 782.089C173.146 777.93 167.897 770.76 163.14 764.824C145.335 742.836 129.567 719.274 116.031 694.429C114.346 691.352 109.888 683.221 109.117 680.109Z"/><path fill="#0A3830" d="M40.493 713.997C41.3326 714.265 41.1169 714.063 42.3452 713.553C47.7884 722.629 52.8535 733.449 58.2295 742.869C62.7915 750.838 67.5329 758.703 72.4499 766.457C74.1377 769.108 80.6535 777.909 80.3615 780.351L79.5767 780.463C73.231 775.657 44.8769 723.15 40.493 713.997Z"/><path fill="#104036" d="M31.6139 748.866C32.7071 749.285 40.5907 757.946 42.1873 759.51C45.7948 756.09 49.2938 752.445 52.8363 748.939C54.5335 750.582 56.0838 752.234 57.8002 753.839C54.1703 757.686 50.4452 761.315 46.8043 765.116C50.3351 768.497 53.8303 771.915 57.2894 775.369C55.6959 777.273 54.1596 779.252 52.4675 781.081C48.4679 777.39 45.6603 774.059 41.9389 770.282C38.8771 774.14 35.3312 777.553 31.7927 780.98L26.2703 775.429C30.3131 771.823 33.4437 768.743 37.3308 765.054C33.1967 761.145 29.9326 758.398 26.0354 754.025L31.6139 748.866Z"/><path fill="#104036" d="M818.508 487.857L820.95 487.923L821.003 496.5C842.618 496.563 865.159 496.294 886.675 496.686L886.444 506.942L819.679 507.055C818.616 516.334 816.959 525.535 814.717 534.601C818.304 529.667 821.483 524.455 824.734 519.291C831.875 519.16 838.937 518.948 846.073 519.308C841.89 525.059 837.675 530.787 833.428 536.491L814.87 536.52C809.343 559.378 803.942 580.742 793.587 602.093C792.473 604.391 789.734 610.351 788.285 612.002C787.685 613.198 787.686 613.129 787.519 614.449C807.755 624.715 827.922 635.118 848.019 645.656C848.156 644.24 847.853 644.833 848.717 643.76C851.536 638.843 854.562 631.768 856.992 626.406C869.978 597.662 879.484 567.47 885.308 536.471L843.949 536.468C847.128 530.558 851.04 525.19 854.101 519.35L888.328 519.334L891.489 490.553L891.864 490.443C893.352 495.448 890.892 513.405 889.998 519.348C905.974 519.439 924.268 518.824 939.83 519.361C936.674 525.055 933.431 530.701 930.103 536.295C916.545 536.841 900.893 536.481 887.175 536.464C881.02 568.383 871.139 599.47 857.735 629.086C856.384 632.053 851.856 642.026 850.11 644.386L849.744 646.283L849.445 646.734C846.124 651.837 843.635 657.716 840.604 662.986C821.375 696.427 790.892 737.05 760.131 760.585C762.616 763.16 776.716 777.491 777.565 779.363L777.088 779.727C774.726 778.983 761.787 764.48 758.971 761.46C754.919 765.138 737.566 780.344 733.329 780.166C734.802 778.257 754.903 762.825 758.074 760.349C748.376 750.427 738.536 739.214 729.082 728.961C724.24 723.71 715.151 714.379 711.153 709.208C683.657 734.474 646.272 752.419 611.827 765.851C613.563 770.84 616.037 777.196 616.587 782.309C612.434 777.089 607.952 760.872 605.814 754.094C600.36 736.806 592.875 719.521 587.961 702.153C563.512 710.078 540.437 714.947 514.495 714.794L514.496 758.032C514.497 762.238 515.222 777.073 513.738 779.657L512.841 779.99L512.217 779.591C511.677 774.381 511.951 764.118 511.936 758.606C511.957 743.927 511.899 729.248 511.76 714.569C485.206 714.591 462.995 710.532 437.637 702.372L420.425 752.077C418.918 756.513 412.755 778.191 410.026 779.708C409.292 777.787 412.899 768.093 413.922 766.071C411.053 764.857 407.093 763.725 404.085 762.542C398.673 760.476 393.311 758.281 388.003 755.96C385.502 754.857 377.206 751.061 375.067 750.608C374.736 759.797 374.952 770.12 374.944 779.393L337.123 779.39C337.144 766.922 337.242 754.454 337.415 741.986L360.254 741.94C346.623 734.319 326.517 719.692 314.566 709.897C299.737 726.405 282.606 744.253 267.115 760.156C274.337 766.612 286.857 775.497 292.806 781.474C284.491 777.792 273.213 767.63 266.257 761.472C262.912 764.93 250.599 778.568 247.396 779.977C247.543 777.331 261.904 763.738 265.005 760.397C229.894 731.015 195.231 688.048 175.48 646.542C162.458 652.144 147.035 661.343 133.721 667.565C129.78 669.407 112.724 677.492 110.15 679.35L109.117 680.109C104.56 681.324 43.2342 712.607 42.3452 713.553C41.1169 714.063 41.3326 714.265 40.493 713.997C27.2055 720.808 13.0616 727.704 0 734.765L0 732.011L0 604.673L0 597.83C7.17765 623.507 15.5442 648.836 25.0725 673.737C29.6738 685.515 37.0087 700.104 40.9818 711.254C62.0857 700.925 87.1709 689.157 107.595 678.12C93.9286 651.926 82.3124 619.608 74.9939 590.987C73.748 586.114 71.5066 580.031 71.7875 575.049L72.3269 574.624C73.7487 576.963 77.5198 593.434 78.6025 597.374C80.8643 605.578 83.3379 613.723 86.0207 621.799C92.8673 642.331 100.058 658.093 109.166 677.486C130.307 667.81 153.458 655.463 174.134 644.758C157.204 610.073 145.366 573.126 138.987 535.059L110.139 535.196L100.775 519.601C112.568 519.568 124.361 519.472 136.153 519.312C135.582 514.242 135.121 509.161 134.771 504.072L114.36 504.025L114.146 497.443C118.87 497.306 129.376 497.631 133.395 496.845C133.943 495.572 133.505 493.686 133.333 492.204C133.804 491.803 134.246 491.434 134.699 491.011C137.198 499.794 136.717 512.32 139.192 521.382C140.466 526.049 143.54 529.426 145.201 534.332L144.84 535.05C143.453 535.185 142.668 535.282 141.27 535.549C140.598 537.552 142.696 546.296 143.169 548.77C149.789 583.412 161.504 612.068 175.579 644.068C194.3 636.036 218.559 622.777 237.19 613.316C222.61 583.939 213.069 552.321 208.967 519.782C207.661 508.539 207.418 499.292 207.161 488.011L208.918 488.029C208.46 499.125 210.308 509.955 210.74 520.864C213.063 520.904 214.574 520.66 216.476 521.914C217.412 523.355 217.246 522.584 216.943 524.313C213.052 530.014 210.947 525.22 212.744 534.781C216.401 554.536 221.988 573.885 229.426 592.549C232.255 599.524 235.985 606.487 238.646 613.09C256.477 602.328 281.305 591.924 300.188 581.537C294.9 571.664 281.994 539.087 281.773 528.999L282.27 528.215C282.83 528.847 288.361 548.93 289.585 552.45C292.968 562.094 296.93 571.526 301.449 580.694C318.809 571.757 339.105 562.952 355.952 553.434C353.406 547.335 343.597 522.2 344.01 516.635C342.103 516.421 339.065 516.549 337.062 516.571L337.134 503.383L322.931 503.426C322.787 501.236 322.847 498.742 322.847 496.524L337.546 496.48C337.535 495.141 337.551 493.778 337.555 492.437C338.4 490.669 338.444 490.769 340.058 489.807C344.315 489.831 344.15 492.821 344.119 496.084L359.517 496.15L359.491 503.08L344.013 503.335C344.612 507.366 344.387 511.015 345.173 515.637C346.984 526.042 353.103 542.799 357.394 552.592C359.949 551.3 364.298 548.931 366.858 548.197C367.873 548.408 368.053 548.363 368.858 548.9C369.629 549.161 370.678 549.702 371.523 549.51C372.014 549.398 372.305 548.944 372.515 548.52C374.705 544.098 394.097 536.692 399.404 533.513L398.582 532.642C398.739 530.742 395.369 523.442 394.423 521.185C392.541 516.695 385.19 493.762 387.329 490.322C388.035 490.964 390.824 505.512 391.565 508.157C393.857 516.339 396.933 524.134 400.226 531.949C413.971 525.19 427.642 518.28 441.235 511.22C437.806 503.797 436.632 500.478 434.894 492.502L435.212 491.759L434.873 490.942C436.753 494.193 440.477 505.859 442.747 510.961C445.753 509.331 453.235 505.049 456.169 504.418C454.279 505.485 445.333 510.375 444.142 511.522C443.602 518.815 461.808 535.158 467.797 539.201C469.578 536.947 471.589 534.056 473.9 532.509L474.135 532.632C473.332 532.826 473.605 532.673 473.215 533.01L473.503 533.911C472.206 535.507 469.98 538.305 468.256 539.39C472.464 542.126 483.096 548.825 488.832 549.167C490.249 549.251 490.647 544.555 491.743 543.762C491.778 545.041 490.92 547.715 490.64 549.216C492.646 552.413 507.838 553.237 511.724 553.502C511.661 547.586 511.181 542.861 513.003 537.189C514.657 542.48 514.425 547.993 514.404 553.516C519.979 553.022 529.624 552.553 534.255 549.849C534.638 548.793 533.559 545.443 533.088 544.305L533.316 543.774C534.558 546.073 534.396 547.649 536.109 549.264C539.836 549.763 553.682 541.832 557.179 539.299C554.402 536.441 552.64 534.5 550.168 531.39C553.791 534.108 554.968 535.344 557.858 538.962C569.232 530.198 576.957 522.422 583.447 509.309C581.365 508.299 578.978 507.383 577.429 505.758C579.711 506.312 581.546 507.016 583.742 507.808C586.394 505.459 587.228 495.089 590.018 490.816C591.395 493.396 586.189 505.716 584.952 508.816C598.031 516.366 612.81 522.31 625.062 529.267C630.212 519.165 634.247 508.001 635.934 496.742C636.209 494.905 636.269 491.146 637.811 490.605C639.254 498.151 630.164 522.639 626.287 529.83C639.389 536.493 656.511 544.453 669.029 551.462C670.699 548.36 677.219 536.831 677.009 533.992C675.655 532.863 675.537 533.002 673.806 532.883C673.062 531.543 673.233 529.113 673.201 527.475L680.342 527.464C682.903 518.619 685.711 509.748 687.473 500.717C687.69 499.604 688.415 498.554 689.308 497.894C689.352 501.537 685.995 513.134 684.835 516.932C686.912 516.786 689.036 516.606 691.114 516.562L691.116 527.082C694.779 527.099 698.89 527.028 702.51 527.199L702.473 533.521L691.228 533.581C691.282 536.988 691.398 540.547 691.249 543.936L685.041 544.026L685.11 533.608L679.292 533.606C677.565 537.624 672.65 548.981 670.189 551.911L668.694 552.164C668.967 553.146 668.778 552.685 669.253 553.551C682.013 560.332 694.862 566.944 707.797 573.385C711.385 575.181 719.63 579.636 722.938 580.965L722.815 581.859L723.953 582.215L724.027 582.431C728.213 583.713 737.594 588.509 741.83 590.62C742.639 591.071 743.153 591.371 743.929 591.866C755.976 596.986 773.776 607.246 785.895 613.598L786.545 611.596C789.019 607.881 792.077 600.761 794 596.619C805.449 571.953 811.416 546.764 815.986 520.114C812.08 525.647 808.838 530.405 805.839 536.468L711.465 536.509C713.348 530.738 715.76 524.908 717.991 519.245L816.147 519.194L817.746 507.255C798.488 506.526 774.598 507.149 754.99 507.176C755.044 504.509 755.15 502.479 754.773 499.81C753.607 499.213 753.397 499.247 752.614 498.24L753.085 497.216C756.785 496.278 773.182 496.614 777.815 496.625L818.597 496.522L818.508 487.857Z"/><path fill="#080B0E" d="M787.519 614.449C807.755 624.715 827.922 635.118 848.019 645.656C840.939 658.687 834.121 671.484 825.991 683.916C807.561 712.102 784.72 737.777 758.877 759.312L712.325 708.535C748.346 677.768 764.653 655.337 787.519 614.449Z"/><path fill="#080B0E" d="M724.027 582.431C728.213 583.713 737.594 588.509 741.83 590.62C742.639 591.071 743.153 591.371 743.929 591.866C755.976 596.986 773.776 607.246 785.895 613.598C768.564 648.122 741.799 683.58 711.107 707.421C709.471 705.304 707.575 703.378 705.713 701.461C691.79 687.126 678.827 671.906 665.122 657.368C689.846 637.527 709.986 610.7 724.027 582.431Z"/><path fill="#104036" d="M741.83 590.62C742.639 591.071 743.153 591.371 743.929 591.866L743.765 592.438C743.087 596.335 737.988 596.624 739.813 591.53C740.531 591.229 741.13 590.976 741.83 590.62Z"/><path fill="#0C2928" d="M741.83 590.62C742.639 591.071 743.153 591.371 743.929 591.866L743.765 592.438C742.386 592.055 741.197 591.836 739.813 591.53C740.531 591.229 741.13 590.976 741.83 590.62Z"/><path fill="#104036" d="M740.114 609.44C743.662 609.347 747.211 609.354 750.758 609.462C750.957 612.925 750.97 616.146 750.981 619.606C747.318 619.535 743.653 619.527 739.99 619.584C740 616.203 740.041 612.821 740.114 609.44Z"/><path fill="#104036" d="M730.128 590.77C733.191 591.82 733.759 592.409 732.53 595.781C728.972 595.246 728.474 594.833 730.128 590.77Z"/><path fill="#080B0E" d="M315.385 708.856C330.471 693.567 347.217 675.001 361.823 658.961C383.904 677.401 409.018 691.87 436.047 701.724C428.967 722.67 421.767 743.575 414.448 764.439C414.256 765.203 414.211 765.334 413.922 766.071C411.053 764.857 407.093 763.725 404.085 762.542C398.673 760.476 393.311 758.281 388.003 755.96C385.502 754.857 377.206 751.061 375.067 750.608C375.08 749.824 375.083 749.039 375.076 748.255L374.913 742.118L363.622 741.986C349.724 733.228 335.683 724.784 322.856 714.508C320.432 712.566 317.895 710.688 315.385 708.856Z"/><path fill="#0A3830" d="M375.076 748.255C378.176 749.012 393.654 756.333 397.877 758.121C401.952 759.846 411.087 762.882 414.448 764.439C414.256 765.203 414.211 765.334 413.922 766.071C411.053 764.857 407.093 763.725 404.085 762.542C398.673 760.476 393.311 758.281 388.003 755.96C385.502 754.857 377.206 751.061 375.067 750.608C375.08 749.824 375.083 749.039 375.076 748.255Z"/><path fill="#080B0E" d="M669.253 553.551C682.013 560.332 694.862 566.944 707.797 573.385C711.385 575.181 719.63 579.636 722.938 580.965L722.815 581.859C718.93 588.887 714.871 596.741 710.694 603.5C697.736 624.467 682.746 640.325 664.26 656.349C650.819 641.678 636.577 626.541 623.535 611.585C637.028 601.233 653.476 580.848 662.052 566.241C663.602 563.603 666.506 563.299 669.338 562.724C669.923 561.284 670.183 561.181 669.796 559.749C668.214 558.665 668.266 559.041 665.959 558.97C667.324 556.988 668.1 555.668 669.253 553.551Z"/><path fill="#104036" d="M656.409 591.188C662.065 591.038 667.725 591.019 673.382 591.133C672.597 592.673 671.824 593.914 671.038 595.392C665.954 595.257 660.767 595.638 655.726 595.189C654.173 595.05 656.175 591.672 656.409 591.188Z"/><path fill="#104036" d="M695.97 591.078C700.207 591.09 704.186 591.05 708.442 591.174C707.37 592.516 706.284 593.756 705.255 595.13C704.593 595.391 704.53 595.421 703.775 595.429C700.396 595.447 697.016 595.398 693.639 595.284C694.406 593.864 695.245 592.516 695.97 591.078Z"/><path fill="#080B0E" d="M589.546 573.862C602.795 565.529 618.72 545.125 625.474 531.121C636.629 536.022 657.096 547.161 668.019 553.158C666.947 555.063 666.027 557.013 665.066 558.976L665.959 558.97C668.266 559.041 668.214 558.665 669.796 559.749C670.183 561.181 669.923 561.284 669.338 562.724C666.506 563.299 663.602 563.603 662.052 566.241C653.476 580.848 637.028 601.233 623.535 611.585L622.518 610.739C620.689 608.215 614.411 601.555 612.141 599.031L589.546 573.862Z"/><path fill="#104036" d="M665.959 558.97C668.266 559.041 668.214 558.665 669.796 559.749C670.183 561.181 669.923 561.284 669.338 562.724C666.506 563.299 663.602 563.603 662.052 566.241C653.476 580.848 637.028 601.233 623.535 611.585L622.518 610.739C630.2 604.351 638.251 595.542 644.775 587.946C647.992 584.201 661.383 566.82 661.301 563.698C659.55 563.068 658.095 562.798 656.963 561.393C657.295 558.393 662.648 559.037 665.066 558.976L665.959 558.97Z"/><path fill="#104036" d="M625.959 559.005C634.266 558.908 634.937 556.78 634.989 563.44C626.54 563.589 626.075 565.755 625.959 559.005Z"/><path fill="#080B0E" d="M399.404 533.513C401.54 534.89 415.885 560.813 421.922 563.78C422.123 563.879 430.171 572.009 430.671 572.592C425.589 572.478 420.507 572.392 415.425 572.334C415.471 577.205 416.466 597.937 414.041 600.592C410.612 604.285 406.828 608.454 403.614 612.312C382.157 593.133 371.014 579.971 357.909 554.111C360.144 552.908 366.747 549.179 368.858 548.9C369.629 549.161 370.678 549.702 371.523 549.51C372.014 549.398 372.305 548.944 372.515 548.52C374.705 544.098 394.097 536.692 399.404 533.513Z"/><path fill="#104036" d="M378.999 550.471C382.652 550.365 386.307 550.338 389.961 550.391C389.929 553.958 389.917 557.524 389.924 561.091C386.296 561.167 382.668 561.187 379.041 561.151C379.004 557.591 378.99 554.031 378.999 550.471Z"/><path fill="#104036" d="M368.458 554.769C369.685 554.326 371.056 554.583 372.041 555.439C373.025 556.296 373.469 557.618 373.2 558.895C372.932 560.172 371.992 561.204 370.746 561.591C368.879 562.17 366.89 561.153 366.268 559.299C365.646 557.445 366.618 555.433 368.458 554.769Z"/><path fill="#080B0E" d="M0 604.673C11.951 644.924 20.891 673.149 39.3025 711.962C28.3378 717.905 16.8339 723.311 5.72891 729.034C4.02085 729.914 1.6827 731.312 0 732.011L0 604.673Z"/><path fill="#080B0E" d="M237.559 614.885C238.718 615.379 247.362 632.16 249.003 634.722C265.773 660.887 288.468 690.148 313.707 708.78C298.183 725.547 281.138 742.625 266.051 759.258C263.624 757.195 261.216 755.11 258.826 753.005C221.918 720.432 199.992 688.37 176.789 645.643C196.254 635.773 218.698 625.909 237.559 614.885Z"/><path fill="#080B0E" d="M239.144 613.455C248.063 610.915 254.181 606.686 262.385 602.761C274.943 596.752 288.609 588.858 301.115 583.052C303.075 587.081 320.511 616.922 320.481 616.744L319.149 618.263C320.245 618.926 321.111 618.877 322.392 618.992C323.882 620.079 334.96 633.124 337.359 635.745C344.679 643.705 352.459 651.23 360.659 658.28L355.526 663.823C343.05 677.571 327.345 695.043 314.445 708.057C290.228 686.7 271.369 667.161 253.901 639.541C250.875 634.756 244.079 623.594 242.376 618.602C240.901 617.073 240.15 615.342 239.144 613.455Z"/><path fill="#104036" d="M246.314 612.566L254.524 611.937C252.69 614.265 251.784 615.855 250.542 618.525L242.376 618.602C243.609 616.706 244.781 614.774 246.072 612.916L246.314 612.566Z"/><path fill="#104036" d="M285.459 612.012C291.423 611.957 297.389 611.951 303.354 611.995C302.55 614.248 301.987 616.955 300.506 618.735C294.212 618.635 287.995 618.713 281.717 618.647C282.973 616.236 283.95 614.319 285.459 612.012Z"/><path fill="#104036" d="M266.248 612.411C269.257 612.332 271.939 612.371 274.936 612.415C273.49 614.57 272.083 616.75 270.715 618.954C267.864 618.972 265.014 618.956 262.164 618.907C263.514 617.118 264.825 615.355 265.8 613.321L266.248 612.411Z"/><path fill="#080B0E" d="M663.915 658.379C665.804 659.933 667.68 662.237 669.374 664.047C683.074 678.68 696.073 694.192 710.172 708.434C683.077 730.627 661.653 742.986 629.905 756.99C624.428 759.401 616.517 762.266 610.858 764.074L596.908 723.604C595.076 718.27 591.311 706.333 589.022 701.641C593.626 700.366 601.006 697.136 605.48 695.18C627.856 685.395 645.475 674.152 663.915 658.379Z"/><path fill="#104036" d="M649.006 686.547C657.674 686.488 666.343 686.482 675.012 686.528C674.974 694.517 675.11 704.009 674.699 711.897L649.164 712.031C649.151 703.163 649.228 695.526 649.006 686.547Z"/><path fill="#080B0E" d="M655.012 692.486C659.648 692.448 664.283 692.433 668.919 692.442L668.947 705.972L655.031 705.944C655.086 701.458 655.08 696.972 655.012 692.486Z"/><path fill="#080B0E" d="M356.227 555.026C357.428 555.258 361.585 564.99 362.778 566.96C373.263 584.271 387.443 599.977 402.605 613.201C390.596 627.061 374.363 643.606 361.683 657.291C356.884 653.047 352.233 648.987 347.676 644.477C339.538 636.621 332.11 627.668 324.87 618.99L337.29 618.956C338.495 616.813 339.794 614.825 341.116 612.756C334.728 612.463 327.098 612.635 320.614 612.627C315.818 607.198 305.429 589.024 302.438 582.188C320.566 573.531 338.5 564.475 356.227 555.026Z"/><path fill="#104036" d="M349.929 611.941C350.888 611.996 352.059 611.917 352.985 612.211C353.036 612.227 353.309 612.377 353.265 612.467C352.143 614.757 350.023 617.485 348.508 619.58C347.902 619.444 346.193 619.117 345.741 618.609C345.666 618.245 349.378 612.771 349.929 611.941Z"/><path fill="#080B0E" d="M622.576 612.499C623.57 613.188 627.295 617.696 628.32 618.788C640.113 631.352 651.252 644.898 663.199 657.288C644.027 673.679 626.973 684.32 603.625 694.338C599.335 696.36 593.003 698.747 588.511 700.116L576.799 665.929C574.357 658.831 571.646 650.291 568.809 643.442C590.742 635.215 604.244 626.583 622.576 612.499Z"/><path fill="#080B0E" d="M403.871 613.824C416.304 624.215 440.758 639.012 456.324 643.461C450.347 662.434 443.114 681.369 436.851 700.366C430.952 698.083 426.654 696.61 420.738 694C403.359 686.655 376.984 670.39 362.654 658.022C368.201 652.559 374.461 645.325 379.822 639.511L403.871 613.824Z"/><path fill="#080B0E" d="M557.037 540.929L557.59 540.83C559.899 541.519 614.296 603.828 621.651 611.42C605.424 624.916 588.027 634.546 568.411 642.078C564.365 630.597 559.828 618.315 556.174 606.765L551.91 594.573C564.323 590.572 565.819 586.807 579.508 586.435C579.501 590.638 578.495 597.709 580.643 600.491C582.183 601.254 582.075 601.191 583.787 600.925C585.162 598.254 584.477 585.2 584.403 581.337C582.378 581.771 581.013 582.244 579.001 581.905C578.684 580.864 578.922 581.328 578.313 580.498C571.95 581.727 571.129 581.866 564.445 581.635C564.651 578.161 566.393 570.801 563.343 568.796C561.183 568.913 561.996 568.504 560.553 569.546C560.043 572.247 560.193 583.079 560.079 586.936L567.265 587.083C561.539 589.809 557.206 591.696 551.135 593.451C548.908 586.384 536.965 555.711 537.043 551.521C540.841 548.77 550.818 545.043 557.037 540.929Z"/><path fill="#080B0E" d="M457.851 644.269C469.778 647.88 481.508 650.618 493.914 652.165C499.029 652.804 506.267 651.747 511.148 652.907C511.906 654.394 511.761 653.608 511.442 655.37C509.071 657.514 500.771 656.545 497.012 656.5L497.003 663.611L511.442 663.555C511.45 679.843 511.817 696.141 511.705 712.42C511.47 712.672 511.236 712.923 511.001 713.175L509.125 713.234C487.369 712.679 458.564 708.631 438.196 700.733C444.155 682.381 451.293 662.428 457.851 644.269Z"/><path fill="#080B0E" d="M566.927 644.088L567.639 644.203C569.227 647.017 571.963 656.213 573.206 659.627C578.061 672.962 582.2 687.468 587.447 700.593C561.572 709.183 545.569 711.723 518.62 713.378C517.214 713.384 515.587 713.627 514.642 712.655C514.262 708.904 513.886 681.044 514.84 679.241C516.128 679.064 516.936 679.12 517.843 678.221C518.668 674.575 518.246 667.429 518.136 663.524L533.848 663.494L533.9 656.39C530.834 656.465 520.619 657.439 518.617 655.341L518.657 653.706C520.35 652.181 526.44 652.022 528.892 651.859C542.067 650.983 554.253 647.683 566.927 644.088Z"/><path fill="#080B0E" d="M474.379 595.845C483.199 599.682 502.008 601.555 511.791 601.614C511.966 618.363 511.652 634.72 511.641 651.413C507.123 651.588 501.95 651.167 497.384 650.91C483.641 649.399 471.562 647.067 458.39 642.708C462.89 627.229 469.573 611.542 474.379 595.845Z"/><path fill="#080B0E" d="M550.297 595.059C551.548 596.191 565.283 637.182 567.329 642.447C552.502 646.804 544.963 648.22 529.61 650.477L518.502 651.501C518.551 648.298 518.625 645.333 518.428 642.131C517.051 640.07 516.708 642.487 514.593 640.737C513.802 631.421 514.424 611.786 514.409 601.6C526.913 601.389 538.494 599.018 550.297 595.059Z"/><path fill="#080B0E" d="M584.542 510.268C586.7 511.151 589.112 512.498 591.195 513.606C602.127 519.424 613.468 524.616 624.332 530.541C617.878 544.185 605.834 558.352 594.749 568.39C592.696 570.055 590.551 571.639 588.44 573.233C581.859 564.42 566.96 549.323 558.904 539.841C570.491 530.711 577.581 523.365 584.542 510.268Z"/><path fill="#080B0E" d="M441.871 511.938C446.11 519.373 450.074 525.453 456.316 531.499C459.264 534.355 463.318 537.08 465.882 540.121C465.029 542.643 441.522 569.559 438.216 572.638C435.925 572.398 435.074 572.482 432.742 572.642C416.875 556.868 412.567 552.733 401.019 532.843C410.22 528.266 419.383 523.612 428.507 518.881C432.108 517.034 438.616 513.98 441.871 511.938Z"/><path fill="#080B0E" d="M448.898 585.19C457.427 589.189 464.537 592.261 473.195 595.803C467.955 611.35 462.593 626.857 457.11 642.321C437.375 635.326 421.063 625.344 404.442 612.785C406.92 610.167 412.748 602.661 415.582 602.318C422.929 603.038 440.55 602.463 448.549 602.426C449.156 597.115 448.616 590.71 448.898 585.19Z"/><path fill="#080B0E" d="M440.793 572.54C441.64 570.393 464.26 544.049 467.443 541.234C467.896 541.375 487.799 550.861 488.41 551.298C488.367 556.059 476.266 587.115 474.447 594.623C466.877 591.891 455.425 587.254 448.768 582.711C448.76 580.369 448.866 574.569 448.513 572.558L440.793 572.54Z"/><path fill="#080B0E" d="M489.697 551.192C496.998 553.034 504.006 554.261 511.559 554.56C511.515 560.456 511.769 571.796 511.339 578.186C511.333 578.274 510.908 578.947 510.865 579.186C510.501 581.211 510.262 586.957 511.032 588.713C512.058 591.053 511.65 597.329 511.649 600.071C506.054 600.033 502.875 599.696 497.481 599.365C497.371 599.35 497.261 599.335 497.152 599.319L491.996 598.588C486.403 597.809 480.455 596.304 475.019 594.732C479.805 582.007 483.188 568.29 488.056 555.519C488.617 554.047 489.253 552.747 489.697 551.192Z"/><path fill="#104036" d="M489.847 577.984C495.535 577.998 494.399 577.243 494.486 583.233C494.516 585.311 494.476 587.439 494.464 589.517C493.886 589.517 490.173 589.668 490.099 589.297C489.541 586.499 489.822 580.788 489.847 577.984Z"/><path fill="#080B0E" d="M534.514 551.615C536.817 551.529 537.275 556.092 538.198 558.512C542.554 569.939 545.73 582.276 550.232 593.651C547.158 594.924 544.457 595.638 541.238 596.424L539.24 596.906C536.796 597.48 534.442 597.941 531.995 598.46C528.821 599.031 525.617 599.423 522.398 599.633C519.11 599.932 517.324 599.98 513.98 600.018C513.946 596.306 513.946 592.674 513.855 588.955C516.168 588.898 518.48 588.865 520.793 588.859C520.778 585.375 520.753 582.076 520.865 578.59L514.378 578.563C514.471 570.569 514.514 562.575 514.506 554.581C521.598 554.24 527.613 553 534.514 551.615Z"/><path fill="#104036" d="M525.864 581.729C532.219 581.594 535.481 579.57 534.799 586C529.25 586 524.149 588.155 525.864 581.729Z"/><path fill="#080B0E" d="M345.39 750.013C352.371 750.084 359.353 750.088 366.334 750.025C366.291 756.76 366.255 764.09 366.435 770.795C359.442 770.977 352.355 770.797 345.332 770.871C345.472 763.862 345.34 757 345.39 750.013Z"/><path fill="#080B0E" d="M684.722 518.426C685.433 519.239 686.381 526.78 683.724 527.392L683.029 527.569C681.283 525.464 683.689 521.093 684.722 518.426Z"/><path fill="#FE732E" d="M925.012 487.883C955.737 427.99 984.287 366.669 1015.38 306.916C1018.33 301.262 1020.96 295.415 1024 289.805L1024 353.975L1024 413.959L1024 479.489L1024 495.428C1005.56 495.121 986.621 495.332 968.138 495.248C968.515 490.769 969.886 468.878 968.128 465.962L967.359 467.364C963.905 473.652 960.297 481.418 957.068 487.934L925.012 487.883Z"/><path fill="#080B0E" d="M1024 353.975L1024 413.959L1024 479.489L1024 495.428C1005.56 495.121 986.621 495.332 968.138 495.248C968.515 490.769 969.886 468.878 968.128 465.962C970.386 460.717 974.085 453.794 976.678 448.524C981.161 439.252 985.746 430.03 990.433 420.86L990.617 420.381C994.561 411.668 999.835 401.872 1004.16 393.22C1010.67 380.223 1017.18 366.771 1024 353.975Z"/><path fill="#FE732E" d="M1024 413.959L1024 479.489C1022.57 482.001 1021.01 485.33 1019.68 487.97L987.111 487.781C991.944 477.012 999.141 463.791 1004.52 452.959C1010.71 440.504 1017.43 425.943 1024 413.959Z"/><path fill="#104036" d="M990.617 420.381L991.314 420.476C992.771 420.63 992.866 421.615 993.202 423.178C993.457 424.369 996.901 434.963 996.357 435.399C994.196 437.126 993.907 434.908 993.672 433.217C992.749 429.404 991.946 424.394 990.433 420.86L990.617 420.381Z"/><path fill="#FE732E" d="M919.78 248.499C930.114 248.523 941.241 248.344 951.512 248.696C945.641 261.778 938.243 275.558 931.706 288.433L902.737 346.278L864.899 422.062C854.005 443.974 843.096 466.478 831.262 487.861L820.95 487.923L818.508 487.857C812.443 487.89 805.725 488.049 799.721 487.849L919.78 248.499Z"/><path fill="#FE732E" d="M11.0633 249.176C21.4298 249.094 31.797 249.159 42.1616 249.372C60.3454 283.485 77.8282 320.46 95.5218 355.207C117.325 399.318 140.739 443.813 161.953 487.976C151.296 488.049 140.639 488.048 129.982 487.971C114.391 454.93 96.7145 422.471 80.7553 389.562C79.5187 387.012 77.9311 383.819 76.4622 381.468C73.6051 373.85 65.8565 359.821 61.974 352.03C50.7212 329.047 39.2999 306.147 27.7107 283.332C22.8013 273.442 14.7794 258.66 11.0633 249.176Z"/><path fill="#FE732E" d="M73.1914 249.269C82.8982 249.095 95.0855 248.943 104.784 249.304L185.325 410.154C194.46 428.001 203.46 445.917 212.325 463.9C215.541 470.384 221.549 481.492 224.131 487.905L208.918 488.029L207.161 488.011L192.941 487.981C180.614 464.605 168.649 439.893 156.789 416.221L109.97 322.801L85.5218 274.074C82.0276 267.154 76.0465 256.197 73.1914 249.269Z"/><path fill="#FE732E" d="M0 290.213C5.93037 300.604 11.8268 313.041 17.2402 323.876C27.8321 345.395 38.6559 366.799 49.7097 388.084C50.1657 389.145 50.5113 389.834 51.0413 390.842C56.1169 401.203 62.2076 414.193 67.7473 424.175C68.1577 425.132 68.4196 425.663 68.9043 426.564L99.553 487.868L67.5471 487.97C63.5138 480.943 59.0741 471.128 55.3745 463.662L32.2266 417.451C29.4547 418.281 7.20648 417.957 2.40938 418.051C1.47429 416.472 1.23925 415.589 0 414.288L0 413.78L0 353.854L0 290.213Z"/><path fill="#080B0E" d="M0 353.854C2.67625 358.623 14.8455 382.057 16.3455 386.498C18.0092 389.442 19.4212 392.522 20.9409 395.541C24.2279 401.063 27.2861 407.582 30.1588 413.397C30.9092 414.716 31.5992 416.069 32.2266 417.451C29.4547 418.281 7.20648 417.957 2.40938 418.051C1.47429 416.472 1.23925 415.589 0 414.288L0 413.78L0 353.854Z"/><path fill="#104036" d="M16.3455 386.498C18.0092 389.442 19.4212 392.522 20.9409 395.541C24.2279 401.063 27.2861 407.582 30.1588 413.397C30.9092 414.716 31.5992 416.069 32.2266 417.451C29.4547 418.281 7.20648 417.957 2.40938 418.051C1.47429 416.472 1.23925 415.589 0 414.288L0 413.78C2.82677 413.163 13.1027 413.357 16.2399 413.416C16.3287 406.56 15.8524 392.529 16.3455 386.498Z"/><path fill="#080B0E" d="M20.9409 395.541C24.2279 401.063 27.2861 407.582 30.1588 413.397C26.928 413.505 24.0862 413.675 20.8946 413.89C20.8333 407.774 20.8487 401.657 20.9409 395.541Z"/><path fill="#104036" d="M968.128 465.962C969.886 468.878 968.515 490.769 968.138 495.248C986.621 495.332 1005.56 495.121 1024 495.428L1024 509.045L1024 519.441L1024 536.248C1004.56 536.313 981.911 536.94 962.702 536.166L960.352 554.7L958.408 555.126C955.896 554.756 950.979 554.92 948.267 554.936L948.249 549.039C951.882 548.994 955.305 549.093 958.936 549.209C961.226 537.581 962.828 521.27 964.817 509.014L927.83 509.023C927.676 504.463 927.733 499.984 927.769 495.427C940.526 495.191 953.69 495.307 966.49 495.241C966.468 486.373 967.653 475.922 967.359 467.364L968.128 465.962Z"/><path fill="#080B0E" d="M1024 509.045L1024 519.441C1007.29 519.38 989.523 518.972 972.923 519.423C969.972 523.513 966.082 530.184 963.226 534.631C964.108 526.253 965.797 517.567 966.743 509.003C985.574 509.316 1005.11 509.048 1024 509.045Z"/><path fill="#104036" d="M62.1999 477.51C63.1303 481.886 63.4181 485.73 63.5102 490.216C63.7091 499.912 64.5022 509.625 64.5809 519.32C71.8889 519.356 79.4004 519.299 86.689 519.442C86.7956 524.602 86.7654 529.763 86.5984 534.922C83.3509 534.899 67.7024 534.584 65.6412 535.449L64.8158 535.496C63.1273 534.66 6.5423 535.039 0 535.033L0 531.598C2.4907 527.938 5.94921 523.165 8.14771 519.447C24.6188 519.317 46.735 519.982 62.7208 519.02C62.3701 508.85 61.1443 486.581 62.1999 477.51Z"/><path fill="#FE732E" d="M0 414.288C1.23925 415.589 1.47429 416.472 2.40938 418.051L25.0761 464.066C28.4908 470.873 34.1936 481.08 37.0835 487.771C26.2487 487.895 15.4131 487.939 4.57756 487.903C3.27396 485.416 1.39502 481.534 0 479.234L0 414.288Z"/><path fill="#0A3830" d="M849.744 646.283L850.11 644.386C869.306 654.483 888.918 663.895 908.129 673.979C910.446 675.195 912.968 676.272 915.227 677.548C914.201 679.075 914.402 678.279 914.37 679.942C909.284 676.902 903.102 674.29 897.801 671.417C882.096 662.904 865.158 655.173 849.744 646.283Z"/><path fill="#0A3830" d="M787.519 614.449C787.686 613.129 787.685 613.198 788.285 612.002C790.245 613.975 812.037 624.42 816.131 626.608C826.542 632.171 838.313 637.855 848.717 643.76C847.853 644.833 848.156 644.24 848.019 645.656C827.922 635.118 807.755 624.715 787.519 614.449Z"/><path fill="#0A3830" d="M725.515 580.071C728.592 581.747 731.651 583.305 734.79 584.855C752.111 593.409 769.678 602.195 786.545 611.596L785.895 613.598C773.776 607.246 755.976 596.986 743.929 591.866C743.153 591.371 742.639 591.071 741.83 590.62C737.594 588.509 728.213 583.713 724.027 582.431L723.953 582.215C724.768 581.261 724.855 581.164 725.515 580.071Z"/><path fill="#0A3830" d="M669.253 553.551C668.778 552.685 668.967 553.146 668.694 552.164L670.189 551.911C676.48 555.251 721.193 577.174 723.411 579.48C723.309 579.934 723.087 580.529 722.938 580.965C719.63 579.636 711.385 575.181 707.797 573.385C694.862 566.944 682.013 560.332 669.253 553.551Z"/><path fill="#104036" d="M59.5243 556.059C59.5333 547.263 57.105 546.168 65.1486 546.755C66.1204 547.248 66.9116 546.994 67.995 546.919C70.5044 547.536 69.5031 553.414 69.5293 556.03C66.1945 556.079 62.8593 556.088 59.5243 556.059Z"/><path fill="#104036" d="M398.582 532.642L399.404 533.513C394.097 536.692 374.705 544.098 372.515 548.52C372.305 548.944 372.014 549.398 371.523 549.51C370.678 549.702 369.629 549.161 368.858 548.9C368.053 548.363 367.873 548.408 366.858 548.197L366.834 547.364C366.684 543.004 366.868 542.467 371.729 543.08C372.507 543.179 372.733 544.958 373.112 544.801C380.503 541.74 391.545 535.551 398.582 532.642Z"/><path fill="#104036" d="M76.4622 381.468C76.8372 386.438 75.9845 388.638 74.8955 393.492L74.3752 395.74C72.9903 401.782 71.9011 407.879 70.8978 413.996C70.178 418.385 70.0924 422.266 68.9043 426.564C68.4196 425.663 68.1577 425.132 67.7473 424.175C68.5109 417.884 73.6702 385.26 76.4622 381.468Z"/><path fill="#104036" d="M723.411 579.48C727.13 576.907 736.463 551.206 738.119 545.507C738.281 544.951 738.731 544.809 739.214 544.768C741.199 547.639 727.583 575.57 725.515 580.071C724.855 581.164 724.768 581.261 723.953 582.215L722.815 581.859L722.938 580.965C723.087 580.529 723.309 579.934 723.411 579.48Z"/><path fill="#104036" d="M49.7097 388.084C53.4514 380.225 52.9236 378.392 59.8635 371.881C57.2488 377.821 53.7886 382.884 51.8284 389.196C51.7041 389.596 51.211 390.512 51.0413 390.842C50.5113 389.834 50.1657 389.145 49.7097 388.084Z"/><path fill="#104036" d="M64.8158 535.496L65.6412 535.449C66.3457 538.461 66.6805 544.731 67.995 546.919C66.9116 546.994 66.1204 547.248 65.1486 546.755C66.2294 545.873 64.8524 537.515 64.8158 535.496Z"/><path fill="#104036" d="M958.408 555.126L960.352 554.7C958.35 559.795 956.747 558.661 958.408 555.126Z"/><path fill="#0C2928" d="M133.333 492.204C133.36 491.841 133.299 489.165 134.122 489.284C134.579 489.728 134.584 490.372 134.699 491.011C134.246 491.434 133.804 491.803 133.333 492.204Z"/><path fill="#FE732E" d="M857.838 248.733C868.375 248.635 878.913 248.653 889.45 248.785C884.322 259.998 878.189 271.432 872.669 282.555L834.229 359.368C812.899 401.793 791.656 446.22 769.591 488.174L737.874 488.017C742.911 477.176 748.971 465.776 754.362 454.992L785.239 393.233L857.838 248.733Z"/><path fill="#FE732E" d="M982.192 248.539L1013.47 248.605C991.772 294.434 967.752 340.392 945.037 385.763L917.101 441.687C909.702 456.637 901.637 473.421 893.536 487.937L861.756 487.924C890.191 432.142 918.298 376.193 946.075 320.08C957.208 297.856 970.251 269.875 982.192 248.539Z"/><path fill="#FE732E" d="M135.213 249.438C145.229 249.409 156.679 249.12 166.577 249.424C177.031 268.906 186.961 289.379 196.83 309.212L236.496 388.542L270.103 455.601C275.286 466.022 281.536 477.436 286.12 488.001L277.59 488.038L275.397 487.994C268.599 488.065 261.801 488.087 255.003 488.059L170.223 319.45L147.076 273.101C143.312 265.606 138.68 256.976 135.213 249.438Z"/><path fill="#104036" d="M332.138 528.992L335.765 528.95C339.106 528.937 337.663 534.229 337.762 537.501L345.9 537.474C346.139 539.512 346.417 541.33 346.606 543.397C343.788 543.474 340.969 543.513 338.15 543.516C338.193 546.341 338.192 549.167 338.146 551.992C336.043 552.047 333.939 552.061 331.836 552.033C331.804 549.18 331.811 546.328 331.857 543.476C329.058 543.488 326.259 543.485 323.46 543.466C323.398 541.442 323.395 539.44 323.345 537.418C326.241 537.389 329.136 537.403 332.032 537.461C332.112 534.639 332.148 531.815 332.138 528.992Z"/><path fill="#104036" d="M275.397 487.994L277.59 488.038C277.523 491.804 277.744 493.492 278.094 497.175C281.894 497.265 286.932 497.055 290.509 497.422C297.215 497.026 295.811 497.252 295.639 503.546L278.997 503.58C279.061 504.558 279.903 510.086 279.044 510.918C278.568 511.379 277.976 510.557 277.912 509.752L277.547 504.98C277.308 502.048 274.17 504.505 273.459 503.696C272.634 502.757 272.999 498.856 273.022 497.465C277.871 496.554 277.106 498.412 276.281 492.588C276.06 491.024 275.78 489.523 275.397 487.994Z"/><path fill="#0A3830" d="M275.397 487.994L277.59 488.038C277.523 491.804 277.744 493.492 278.094 497.175C281.894 497.265 286.932 497.055 290.509 497.422C285.996 497.918 277.742 497.856 273.022 497.465C277.871 496.554 277.106 498.412 276.281 492.588C276.06 491.024 275.78 489.523 275.397 487.994Z"/><path fill="#104036" d="M43.508 488.516C45.553 488.548 48.1056 488.493 50.0771 488.721C49.9875 496.978 50 505.235 50.1146 513.492L43.4927 513.52L43.508 488.516Z"/><path fill="#104036" d="M206.508 610.125C209.831 610.038 213.155 610.057 216.477 610.184C216.489 613.449 216.543 616.714 216.637 619.979C213.257 620.06 209.875 620.089 206.494 620.063C206.469 616.751 206.473 613.438 206.508 610.125Z"/><path fill="#104036" d="M235.618 521.247C238.581 521.244 247.6 520.879 250.783 521.594C250.968 521.636 251.774 525.809 250.367 526.937L234 526.963C234.017 524.35 233.044 521.887 235.618 521.247Z"/><path fill="#104036" d="M982.361 637.08C987.691 637.018 993.021 636.99 998.351 636.995C997.828 638.842 997.232 640.666 996.688 642.507C991.322 642.488 985.956 642.505 980.59 642.558C981.185 640.291 981.429 639.275 982.361 637.08Z"/><path fill="#104036" d="M949.175 637.064C954.264 637.123 959.398 637.047 964.503 637.075C964.114 638.254 963.078 641.668 962.37 642.498L945.708 642.505L946.055 641.967C947.125 640.352 948.165 638.717 949.175 637.064Z"/><path fill="#104036" d="M776.934 591.069C782.116 591.166 787.351 590.949 792.524 591.132C792.734 591.108 793.753 591.359 793.786 591.588C793.916 592.496 792.933 594.439 792.644 595.218C791.089 595.224 776.228 595.201 775.71 594.861C775.485 594.294 776.571 592.16 776.782 591.532L776.934 591.069Z"/><path fill="#104036" d="M198.5 494.998C199.455 494.984 203.235 494.778 203.491 495.171C204.047 496.027 203.978 504.908 204.01 505.887C202.835 505.917 201.66 505.938 200.484 505.949C196.964 505.95 198.496 498.328 198.5 494.998Z"/><path fill="#104036" d="M97.3437 547.228C99.7465 547.19 101.691 547.209 104.076 547.298C104.058 549.104 104.8 553.991 103.028 554.532C100.698 554.542 98.3689 554.538 96.0395 554.521C96.0766 552.248 95.1488 547.884 97.3437 547.228Z"/><path fill="#104036" d="M79.2154 547.422C81.7749 547.399 84.1187 547.441 86.6768 547.505L86.6632 554.594L79.3895 554.608L79.2154 547.422Z"/><path fill="#104036" d="M160.526 495.096C161.333 495.076 164.612 494.848 164.828 495.24C165.505 496.471 165.248 504.001 165.238 505.168C164.409 505.183 161.061 505.425 160.776 504.962C160.197 504.022 160.5 496.122 160.526 495.096Z"/><path fill="#104036" d="M659.62 528.448C667.602 528.233 667.042 527.138 666.995 534.096C659.663 533.993 659.812 535.787 659.62 528.448Z"/><path fill="#104036" d="M916.162 637.02C918.604 637.041 920.765 637.113 923.203 637.23C921.887 639.001 921.219 640.138 920.078 642.028L919.86 642.384C917.93 642.541 915.016 642.473 912.986 642.498C914.049 640.664 915.121 638.869 916.162 637.02Z"/><path fill="#104036" d="M266.681 521.024C267.689 520.999 270.64 520.848 271.522 521.105C272.069 521.262 272.518 521.652 272.752 522.17C273.338 523.507 272.391 525.7 271.96 526.942C267.913 527.252 264.829 527.059 266.461 521.795L266.681 521.024Z"/><path fill="#104036" d="M187.952 521.108C193.55 520.785 194.578 520.828 193.035 527.294C188.669 527.13 185.19 527.388 187.952 521.108Z"/><path fill="#104036" d="M951.804 373.209C954.674 374.623 957.116 387.229 957.423 390.6C954.563 389.505 952.44 376.633 951.804 373.209Z"/><path fill="#104036" d="M968.851 373.294C972.477 374.279 975.105 382.724 975.022 386.21C972.57 384.959 969.219 376.228 968.851 373.294Z"/><path fill="#104036" d="M33.1814 421.288C34.3107 424.044 31.0542 433.71 29.0483 435.64C27.7203 432.603 31.3923 423.86 33.1814 421.288Z"/><path fill="#104036" d="M803.475 590.852C807.544 591.607 807.837 591.794 805.477 595.817C802.189 595.332 801.042 593.644 803.475 590.852Z"/><path fill="#104036" d="M253.352 497.332C258.309 497.4 258.24 496.46 258.575 500.917C253.91 501.091 254.164 501.721 253.352 497.332Z"/><path fill="#104036" d="M903.701 636.872C908.149 637.259 905.875 638.772 903.39 642.318C899.328 642.471 902.32 640.192 903.701 636.872Z"/><path fill="#104036" d="M694.618 497.127C695.491 496.655 696.579 496.952 697.092 497.8C697.605 498.649 697.362 499.75 696.539 500.304C695.971 500.686 695.238 500.725 694.632 500.404C694.026 500.083 693.646 499.455 693.644 498.769C693.641 498.084 694.015 497.453 694.618 497.127Z"/><path fill="#104036" d="M655.004 497.236C655.542 496.808 656.274 496.717 656.901 497.002C657.527 497.286 657.941 497.896 657.974 498.583C658.007 499.27 657.652 499.917 657.055 500.26C656.224 500.736 655.166 500.492 654.628 499.699C654.089 498.906 654.253 497.832 655.004 497.236Z"/><path fill="#104036" d="M241.358 497.852C242.02 497.094 243.17 497.014 243.932 497.671C244.693 498.329 244.781 499.478 244.129 500.244C243.47 501.016 242.309 501.105 241.54 500.442C240.772 499.779 240.69 498.617 241.358 497.852Z"/><path fill="#104036" d="M724.885 497.422C727.541 497.392 729.203 496.651 728.858 499.698L728.766 500.638C725.418 500.292 725.035 500.63 724.885 497.422Z"/><path fill="#104036" d="M736.516 497.799C736.916 497.262 737.58 496.99 738.242 497.093C738.904 497.195 739.455 497.655 739.674 498.288C739.893 498.921 739.744 499.623 739.288 500.112C738.633 500.815 737.544 500.883 736.807 500.268C736.07 499.653 735.942 498.569 736.516 497.799Z"/><path fill="#104036" d="M708.989 497.592C712.309 497.261 713.02 496.53 713.888 499.715C711.581 500.063 710.093 500.813 709.272 498.371L708.989 497.592Z"/><path fill="#104036" d="M677.67 497.175C678.383 496.674 679.359 496.793 679.931 497.45C680.503 498.107 680.486 499.09 679.892 499.727C679.449 500.202 678.773 500.384 678.151 500.194C677.53 500.004 677.07 499.477 676.968 498.835C676.866 498.193 677.138 497.549 677.67 497.175Z"/><path fill="#0A3830" d="M1017.09 551.361C1017.46 550.846 1018.09 550.583 1018.72 550.679C1019.35 550.775 1019.87 551.213 1020.07 551.816C1020.28 552.418 1020.13 553.083 1019.68 553.539C1019.06 554.178 1018.06 554.229 1017.37 553.656C1016.69 553.084 1016.57 552.082 1017.09 551.361Z"/><path fill="#104036" d="M839.905 550.569C840.661 550.056 841.69 550.253 842.203 551.009C842.716 551.765 842.518 552.794 841.761 553.306C841.005 553.818 839.978 553.62 839.466 552.865C838.954 552.109 839.151 551.082 839.905 550.569Z"/><path fill="#104036" d="M1005.42 551.235C1006.02 550.721 1006.9 550.734 1007.47 551.265C1008.05 551.795 1008.13 552.674 1007.67 553.305C1007.32 553.78 1006.73 554.013 1006.15 553.905C1005.57 553.797 1005.11 553.367 1004.95 552.798C1004.8 552.229 1004.98 551.622 1005.42 551.235Z"/></svg>